<?xml version="1.0" encoding="utf-8"?>
<!-- Generator: Adobe Illustrator 24.0.1, SVG Export Plug-In . SVG Version: 6.00 Build 0)  -->
<svg version="1.1" id="Layer_1" xmlns="http://www.w3.org/2000/svg" xmlns:xlink="http://www.w3.org/1999/xlink" x="0px" y="0px"
	 viewBox="0 0 100 100" style="enable-background:new 0 0 100 100;" xml:space="preserve">
<style type="text/css">
	.st0{opacity:0.3;}
	.st1{fill:#555253;}
	.st2{fill:#FFFFFF;}
</style>
<g>
	<g class="st0">
		<path class="st1" d="M70.46,93H37.63c-14.63,0-26.54-11.91-26.54-26.54V33.63C11.09,19,22.99,7.09,37.63,7.09h32.83
			C85.09,7.09,97,19,97,33.63v32.83C97,81.09,85.09,93,70.46,93z M37.63,16.67c-9.35,0-16.96,7.61-16.96,16.96v32.83
			c0,9.35,7.61,16.96,16.96,16.96h32.83c9.35,0,16.96-7.61,16.96-16.96V33.63c0-9.35-7.61-16.96-16.96-16.96H37.63z"/>
		<path class="st1" d="M54.04,72c-12.11,0-21.96-9.85-21.96-21.96s9.85-21.96,21.96-21.96S76,37.94,76,50.04S66.15,72,54.04,72z
			 M54.04,36.71c-7.35,0-13.34,5.98-13.34,13.34c0,7.35,5.98,13.34,13.34,13.34s13.34-5.98,13.34-13.34
			C67.38,42.69,61.4,36.71,54.04,36.71z"/>
		<circle class="st1" cx="77.11" cy="26.81" r="3.71"/>
	</g>
	<g>
		<path class="st2" d="M61.76,88.65H28.93c-14.63,0-26.54-11.91-26.54-26.54V29.28c0-14.63,11.91-26.54,26.54-26.54h32.83
			c14.63,0,26.54,11.91,26.54,26.54v32.83C88.3,76.74,76.39,88.65,61.76,88.65z M28.93,12.31c-9.35,0-16.96,7.61-16.96,16.96v32.83
			c0,9.35,7.61,16.96,16.96,16.96h32.83c9.35,0,16.96-7.61,16.96-16.96V29.28c0-9.35-7.61-16.96-16.96-16.96H28.93z"/>
		<path class="st2" d="M45.34,67.65c-12.11,0-21.96-9.85-21.96-21.96s9.85-21.96,21.96-21.96S67.3,33.59,67.3,45.69
			S57.45,67.65,45.34,67.65z M45.34,32.36c-7.35,0-13.34,5.98-13.34,13.34c0,7.36,5.98,13.34,13.34,13.34s13.34-5.98,13.34-13.34
			C58.68,38.34,52.7,32.36,45.34,32.36z"/>
		<path class="st2" d="M72.12,22.46c0,2.05-1.66,3.71-3.71,3.71c-2.05,0-3.71-1.66-3.71-3.71s1.66-3.71,3.71-3.71
			C70.46,18.75,72.12,20.41,72.12,22.46z"/>
	</g>
</g>
</svg>
