<?xml version="1.0" encoding="utf-8"?>
<!-- Generator: Adobe Illustrator 24.0.1, SVG Export Plug-In . SVG Version: 6.00 Build 0)  -->
<svg version="1.1" id="Layer_1" xmlns="http://www.w3.org/2000/svg" xmlns:xlink="http://www.w3.org/1999/xlink" x="0px" y="0px"
	 viewBox="0 0 100 100" style="enable-background:new 0 0 100 100;" xml:space="preserve">
<style type="text/css">
	.st0{opacity:0.3;}
	.st1{fill:#555253;}
	.st2{fill:#FFFFFF;}
</style>
<g>
	<g class="st0">
		<path class="st1" d="M56.16,92.85c-8.52,0-16.68-2.54-23.67-7.35l-16.95,6.66l5.96-17.73c-4.7-6.94-7.18-15.02-7.18-23.42
			c0-11.18,4.35-21.68,12.25-29.58c7.9-7.9,18.41-12.25,29.58-12.25s21.68,4.35,29.58,12.25C93.65,29.33,98,39.84,98,51.01
			S93.65,72.69,85.75,80.6C77.84,88.5,67.34,92.85,56.16,92.85z M33.01,81.29l0.83,0.6c6.53,4.73,14.25,7.23,22.33,7.23
			c21.02,0,38.11-17.1,38.11-38.11S77.18,12.9,56.16,12.9c-21.02,0-38.11,17.1-38.11,38.11c0,7.95,2.43,15.58,7.04,22.05l0.55,0.77
			l-4.01,11.93L33.01,81.29z"/>
		<path class="st1" d="M79.73,61.56c0.37,0.39,0.53,0.92,0.45,1.45c-0.48,3.09-3.19,14.44-16.83,9.61
			c-15.72-5.56-27.08-15.34-30.72-28.38c-3.64-13.04,6.85-16.49,9.06-15.72c2.2,0.77,7.67,10.45,6.9,12.56
			c-0.77,2.11-4.46,4.12-4.34,6.35c0.1,1.89,14.02,15.75,17.97,14.64c2.72-0.76,3-4.96,5.68-5.44
			C70.35,56.2,77.36,59.05,79.73,61.56z"/>
	</g>
	<g>
		<path class="st2" d="M47.4,88.47c-8.52,0-16.68-2.54-23.68-7.35L6.78,87.79l5.96-17.73c-4.7-6.94-7.18-15.02-7.18-23.42
			c0-11.18,4.35-21.68,12.25-29.58c7.9-7.9,18.41-12.25,29.58-12.25c11.18,0,21.68,4.35,29.58,12.25
			c7.9,7.9,12.25,18.41,12.25,29.58s-4.35,21.68-12.25,29.58C69.09,84.12,58.58,88.47,47.4,88.47z M24.25,76.91l0.83,0.6
			c6.53,4.73,14.25,7.23,22.33,7.23c21.02,0,38.11-17.1,38.11-38.11S68.42,8.52,47.4,8.52S9.29,25.62,9.29,46.63
			c0,7.95,2.43,15.58,7.04,22.05l0.55,0.77l-4.01,11.93L24.25,76.91z"/>
		<path class="st2" d="M70.97,57.18c0.37,0.39,0.53,0.92,0.45,1.45c-0.48,3.09-3.19,14.44-16.83,9.61
			C38.87,62.68,27.51,52.9,23.87,39.87c-3.64-13.04,6.85-16.49,9.06-15.72c2.2,0.77,7.67,10.45,6.9,12.56
			c-0.77,2.11-4.46,4.12-4.34,6.35c0.1,1.89,14.02,15.75,17.97,14.64c2.72-0.76,3-4.96,5.68-5.44
			C61.59,51.82,68.6,54.68,70.97,57.18z"/>
	</g>
</g>
</svg>
